<?xml version="1.0" encoding="UTF-8" standalone="no"?>
<svg
   xmlns:dc="http://purl.org/dc/elements/1.1/"
   xmlns:cc="http://creativecommons.org/ns#"
   xmlns:rdf="http://www.w3.org/1999/02/22-rdf-syntax-ns#"
   xmlns:svg="http://www.w3.org/2000/svg"
   xmlns="http://www.w3.org/2000/svg"
   viewBox="0 0 793.70135 117.16533"
   height="117.16533"
   width="793.70135"
   xml:space="preserve"
   id="svg2"
   version="1.1"><metadata
     id="metadata8"><rdf:RDF><cc:Work
         rdf:about=""><dc:format>image/svg+xml</dc:format><dc:type
           rdf:resource="http://purl.org/dc/dcmitype/StillImage" /></cc:Work></rdf:RDF></metadata><defs
     id="defs6"><clipPath
       id="clipPath18"
       clipPathUnits="userSpaceOnUse"><path
         id="path16"
         d="M 0,0 H 595.276 V 87.874 H 0 Z" /></clipPath></defs><g
     transform="matrix(1.3333333,0,0,-1.3333333,0,117.16533)"
     id="g10"><g
       id="g12"><g
         clip-path="url(#clipPath18)"
         id="g14"><g
           transform="translate(23.6892,17.8553)"
           id="g20"><path
             id="path22"
             style="fill:#ffffff;fill-opacity:1;fill-rule:nonzero;stroke:none"
             d="m 0,0 c -0.33,0.329 -0.493,0.695 -0.493,1.1 0,0.304 0.025,0.531 0.075,0.682 l 17.691,48.672 c 0.507,1.468 1.52,2.202 3.038,2.202 h 11.844 c 1.52,0 2.531,-0.734 3.038,-2.202 L 52.885,1.782 C 52.934,1.631 52.961,1.404 52.961,1.1 52.961,0.695 52.796,0.329 52.467,0 52.137,-0.331 51.77,-0.494 51.366,-0.494 h -9.871 c -1.214,0 -2.076,0.556 -2.581,1.671 L 36.18,8.541 H 16.287 L 13.553,1.177 C 13.047,0.062 12.186,-0.494 10.972,-0.494 H 1.101 C 0.696,-0.494 0.329,-0.331 0,0 M 19.475,19.93 H 32.99 l -6.757,19.363 z" /></g><g
           transform="translate(85.6735,22.3476)"
           id="g24"><path
             id="path26"
             style="fill:#40b3b2;fill-opacity:1;fill-rule:nonzero;stroke:none"
             d="M 0,0 C 0,-7.821 -6.34,-14.161 -14.161,-14.161 H -57.34 c -7.82,0 -14.16,6.34 -14.16,14.161 v 43.178 c 0,7.822 6.34,14.162 14.16,14.162 h 43.179 C -6.34,57.34 0,51 0,43.178 Z" /></g><g
           transform="translate(23.6892,17.8553)"
           id="g28"><path
             id="path30"
             style="fill:#ffffff;fill-opacity:1;fill-rule:nonzero;stroke:none"
             d="m 0,0 c -0.33,0.329 -0.493,0.695 -0.493,1.1 0,0.304 0.025,0.531 0.075,0.682 l 17.691,48.672 c 0.507,1.468 1.52,2.202 3.038,2.202 h 11.844 c 1.52,0 2.531,-0.734 3.038,-2.202 L 52.885,1.782 C 52.934,1.631 52.961,1.404 52.961,1.1 52.961,0.695 52.796,0.329 52.467,0 52.137,-0.331 51.77,-0.494 51.366,-0.494 h -9.871 c -1.214,0 -2.076,0.556 -2.581,1.671 L 36.18,8.541 H 16.287 L 13.553,1.177 C 13.047,0.062 12.186,-0.494 10.972,-0.494 H 1.101 C 0.696,-0.494 0.329,-0.331 0,0 M 19.475,19.93 H 32.99 l -6.757,19.363 z" /></g><g
           transform="translate(23.6892,17.8553)"
           id="g32"><path
             id="path34"
             style="fill:#ffffff;fill-opacity:1;fill-rule:nonzero;stroke:none"
             d="m 0,0 c -0.33,0.329 -0.493,0.695 -0.493,1.1 0,0.304 0.025,0.531 0.075,0.682 l 17.691,48.672 c 0.507,1.468 1.52,2.202 3.038,2.202 h 11.844 c 1.52,0 2.531,-0.734 3.038,-2.202 L 52.885,1.782 C 52.934,1.631 52.961,1.404 52.961,1.1 52.961,0.695 52.796,0.329 52.467,0 52.137,-0.331 51.77,-0.494 51.366,-0.494 h -9.871 c -1.214,0 -2.076,0.556 -2.581,1.671 L 36.18,8.541 H 16.287 L 13.553,1.177 C 13.047,0.062 12.186,-0.494 10.972,-0.494 H 1.101 C 0.696,-0.494 0.329,-0.331 0,0 M 19.475,19.93 H 32.99 l -6.757,19.363 z" /></g><g
           transform="translate(94.995,17.8823)"
           id="g36"><path
             id="path38"
             style="fill:#40b3b2;fill-opacity:1;fill-rule:nonzero;stroke:none"
             d="M 0,0 C -0.381,0.381 -0.572,0.826 -0.572,1.335 V 50.86 c 0,0.559 0.178,1.03 0.534,1.411 0.355,0.382 0.813,0.573 1.374,0.573 h 21.595 c 6.613,0 11.802,-1.501 15.567,-4.502 3.764,-3.002 5.647,-7.402 5.647,-13.202 0,-5.799 -1.883,-10.137 -5.647,-13.01 -3.765,-2.875 -8.954,-4.312 -15.567,-4.312 H 14.232 V 1.335 C 14.232,0.826 14.053,0.381 13.698,0 13.341,-0.382 12.883,-0.573 12.324,-0.573 H 1.336 C 0.827,-0.573 0.382,-0.382 0,0 m 22.549,28.73 c 2.086,0 3.726,0.546 4.922,1.641 1.195,1.093 1.794,2.709 1.794,4.846 0,1.984 -0.547,3.586 -1.641,4.807 -1.095,1.221 -2.785,1.831 -5.075,1.831 H 14.003 V 28.73 Z" /></g><g
           transform="translate(147.4706,17.8823)"
           id="g40"><path
             id="path42"
             style="fill:#40b3b2;fill-opacity:1;fill-rule:nonzero;stroke:none"
             d="M 0,0 C -0.381,0.381 -0.572,0.826 -0.572,1.335 V 50.86 c 0,0.559 0.178,1.03 0.534,1.411 0.355,0.382 0.813,0.573 1.374,0.573 h 21.595 c 6.613,0 11.802,-1.501 15.567,-4.502 3.765,-3.002 5.647,-7.402 5.647,-13.202 0,-5.799 -1.882,-10.137 -5.647,-13.01 -3.765,-2.875 -8.954,-4.312 -15.567,-4.312 H 14.232 V 1.335 C 14.232,0.826 14.053,0.381 13.698,0 13.341,-0.382 12.883,-0.573 12.324,-0.573 H 1.336 C 0.827,-0.573 0.382,-0.382 0,0 m 22.549,28.73 c 2.086,0 3.726,0.546 4.922,1.641 1.195,1.093 1.794,2.709 1.794,4.846 0,1.984 -0.547,3.586 -1.641,4.807 -1.095,1.221 -2.785,1.831 -5.075,1.831 H 14.003 V 28.73 Z" /></g><g
           transform="translate(204.8761,22.1506)"
           id="g44"><path
             id="path46"
             style="fill:#595b62;fill-opacity:1;fill-rule:nonzero;stroke:none"
             d="m 0,0 c -3.644,3.644 -5.593,8.58 -5.846,14.806 -0.051,1.519 -0.076,3.897 -0.076,7.138 0,3.289 0.025,5.668 0.076,7.137 0.201,6.175 2.137,11.072 5.808,14.692 3.67,3.619 8.795,5.429 15.376,5.429 4.454,0 8.225,-0.811 11.313,-2.429 3.088,-1.621 5.416,-3.558 6.986,-5.809 1.568,-2.253 2.404,-4.341 2.506,-6.264 v -0.152 c 0,-0.406 -0.165,-0.748 -0.494,-1.025 -0.33,-0.279 -0.697,-0.418 -1.101,-0.418 h -4.252 c -0.456,0 -0.797,0.101 -1.025,0.304 -0.228,0.201 -0.444,0.581 -0.645,1.139 -0.81,2.379 -2.305,4.378 -4.48,5.998 -2.177,1.619 -5.114,2.43 -8.808,2.43 -4.252,0 -7.593,-1.165 -10.023,-3.493 C 2.886,37.154 1.595,33.561 1.443,28.701 1.392,27.232 1.367,24.981 1.367,21.944 c 0,-2.988 0.025,-5.24 0.076,-6.758 0.152,-4.911 1.443,-8.53 3.872,-10.858 2.43,-2.329 5.771,-3.493 10.023,-3.493 4.302,0 7.745,1.177 10.327,3.531 2.581,2.353 3.872,5.884 3.872,10.592 v 3.265 H 17.92 c -0.507,0 -0.925,0.177 -1.254,0.531 -0.329,0.354 -0.493,0.785 -0.493,1.291 v 2.278 c 0,0.505 0.164,0.936 0.493,1.291 0.329,0.353 0.747,0.531 1.254,0.531 h 17.008 c 0.556,0 0.999,-0.164 1.329,-0.493 0.328,-0.33 0.493,-0.772 0.493,-1.329 V 15.11 C 36.75,11.009 35.902,7.403 34.207,4.29 32.51,1.177 30.042,-1.228 26.803,-2.923 23.563,-4.62 19.742,-5.467 15.338,-5.467 8.757,-5.467 3.645,-3.645 0,0" /></g><g
           transform="translate(253.0148,17.9363)"
           id="g48"><path
             id="path50"
             style="fill:#595b62;fill-opacity:1;fill-rule:nonzero;stroke:none"
             d="m 0,0 c -0.304,0.329 -0.456,0.746 -0.456,1.253 v 49.658 c 0,0.505 0.152,0.923 0.456,1.252 0.303,0.329 0.708,0.494 1.215,0.494 h 3.796 c 0.556,0 0.987,-0.152 1.291,-0.455 0.304,-0.304 0.456,-0.735 0.456,-1.291 V 1.253 C 6.758,0.746 6.593,0.329 6.264,0 5.934,-0.33 5.517,-0.494 5.011,-0.494 H 1.215 C 0.708,-0.494 0.303,-0.33 0,0" /></g><g
           transform="translate(273.5915,17.9363)"
           id="g52"><path
             id="path54"
             style="fill:#595b62;fill-opacity:1;fill-rule:nonzero;stroke:none"
             d="m 0,0 c -0.304,0.329 -0.456,0.746 -0.456,1.253 v 49.582 c 0,0.556 0.152,0.999 0.456,1.328 0.303,0.329 0.708,0.494 1.215,0.494 h 3.341 c 0.505,0 0.885,-0.102 1.139,-0.304 C 5.947,52.15 6.2,51.898 6.454,51.594 L 31.89,12.415 v 38.42 c 0,0.556 0.164,0.999 0.494,1.328 0.328,0.329 0.746,0.494 1.253,0.494 h 3.416 c 0.557,0 0.999,-0.165 1.329,-0.494 0.329,-0.329 0.493,-0.772 0.493,-1.328 V 1.328 c 0,-0.506 -0.164,-0.937 -0.493,-1.29 -0.33,-0.355 -0.747,-0.532 -1.253,-0.532 h -3.417 c -0.861,0 -1.469,0.354 -1.822,1.063 L 6.454,39.369 V 1.253 C 6.454,0.746 6.289,0.329 5.96,0 5.63,-0.33 5.213,-0.494 4.707,-0.494 H 1.215 C 0.708,-0.494 0.303,-0.33 0,0" /></g><g
           transform="translate(326.21,17.9363)"
           id="g56"><path
             id="path58"
             style="fill:#595b62;fill-opacity:1;fill-rule:nonzero;stroke:none"
             d="m 0,0 c -0.304,0.329 -0.456,0.746 -0.456,1.253 v 49.582 c 0,0.556 0.152,0.999 0.456,1.328 0.303,0.329 0.708,0.494 1.215,0.494 h 31.207 c 0.556,0 0.999,-0.165 1.329,-0.494 0.328,-0.329 0.493,-0.772 0.493,-1.328 v -2.734 c 0,-0.507 -0.165,-0.911 -0.493,-1.215 -0.33,-0.303 -0.773,-0.455 -1.329,-0.455 H 6.53 V 29.499 h 24.221 c 0.557,0 0.999,-0.165 1.329,-0.494 0.329,-0.33 0.494,-0.772 0.494,-1.329 v -2.581 c 0,-0.507 -0.165,-0.924 -0.494,-1.253 -0.33,-0.33 -0.772,-0.494 -1.329,-0.494 H 6.53 V 5.808 h 26.499 c 0.557,0 0.999,-0.165 1.329,-0.493 0.329,-0.33 0.494,-0.773 0.494,-1.329 V 1.253 C 34.852,0.746 34.674,0.329 34.32,0 33.965,-0.33 33.534,-0.494 33.029,-0.494 H 1.215 C 0.708,-0.494 0.303,-0.33 0,0" /></g><g
           transform="translate(372.1473,17.9363)"
           id="g60"><path
             id="path62"
             style="fill:#595b62;fill-opacity:1;fill-rule:nonzero;stroke:none"
             d="m 0,0 c -0.304,0.329 -0.456,0.746 -0.456,1.253 v 49.582 c 0,0.556 0.152,0.999 0.456,1.328 0.303,0.329 0.708,0.494 1.215,0.494 h 31.206 c 0.556,0 1,-0.165 1.329,-0.494 0.329,-0.329 0.494,-0.772 0.494,-1.328 v -2.734 c 0,-0.507 -0.165,-0.911 -0.494,-1.215 -0.329,-0.303 -0.773,-0.455 -1.329,-0.455 H 6.529 V 29.499 h 24.223 c 0.556,0 0.998,-0.165 1.328,-0.494 0.329,-0.33 0.493,-0.772 0.493,-1.329 v -2.581 c 0,-0.507 -0.164,-0.924 -0.493,-1.253 -0.33,-0.33 -0.772,-0.494 -1.328,-0.494 H 6.529 V 5.808 h 26.5 c 0.557,0 0.999,-0.165 1.329,-0.493 0.329,-0.33 0.493,-0.773 0.493,-1.329 V 1.253 C 34.851,0.746 34.673,0.329 34.32,0 33.965,-0.33 33.535,-0.494 33.029,-0.494 H 1.215 C 0.708,-0.494 0.303,-0.33 0,0" /></g><g
           transform="translate(418.0837,17.9363)"
           id="g64"><path
             id="path66"
             style="fill:#595b62;fill-opacity:1;fill-rule:nonzero;stroke:none"
             d="m 0,0 c -0.303,0.329 -0.455,0.746 -0.455,1.253 v 49.582 c 0,0.556 0.152,0.999 0.455,1.328 0.304,0.329 0.708,0.494 1.215,0.494 h 18.527 c 5.77,0 10.289,-1.355 13.554,-4.062 3.265,-2.708 4.897,-6.644 4.897,-11.807 0,-3.847 -0.962,-7.012 -2.885,-9.491 -1.924,-2.481 -4.607,-4.203 -8.049,-5.164 L 38.952,1.86 C 39.104,1.557 39.18,1.278 39.18,1.025 39.18,0.619 39.029,0.266 38.725,-0.038 38.421,-0.342 38.066,-0.494 37.662,-0.494 H 34.32 c -0.758,0 -1.354,0.177 -1.784,0.532 -0.43,0.353 -0.823,0.86 -1.177,1.519 L 20.197,20.994 H 6.682 V 1.253 C 6.682,0.746 6.504,0.329 6.151,0 5.796,-0.33 5.365,-0.494 4.861,-0.494 H 1.215 C 0.708,-0.494 0.304,-0.33 0,0 m 19.438,27.221 c 7.643,0 11.465,3.213 11.465,9.643 0,6.428 -3.822,9.643 -11.465,9.643 H 6.682 V 27.221 Z" /></g><g
           transform="translate(467.7407,17.9363)"
           id="g68"><path
             id="path70"
             style="fill:#595b62;fill-opacity:1;fill-rule:nonzero;stroke:none"
             d="m 0,0 c -0.303,0.329 -0.455,0.746 -0.455,1.253 v 49.658 c 0,0.505 0.152,0.923 0.455,1.252 0.304,0.329 0.708,0.494 1.215,0.494 h 3.796 c 0.558,0 0.988,-0.152 1.292,-0.455 0.304,-0.304 0.456,-0.735 0.456,-1.291 V 1.253 C 6.759,0.746 6.593,0.329 6.264,0 5.935,-0.33 5.517,-0.494 5.011,-0.494 H 1.215 C 0.708,-0.494 0.304,-0.33 0,0" /></g><g
           transform="translate(488.3173,17.9363)"
           id="g72"><path
             id="path74"
             style="fill:#595b62;fill-opacity:1;fill-rule:nonzero;stroke:none"
             d="m 0,0 c -0.303,0.329 -0.455,0.746 -0.455,1.253 v 49.582 c 0,0.556 0.152,0.999 0.455,1.328 0.304,0.329 0.708,0.494 1.215,0.494 h 3.342 c 0.505,0 0.884,-0.102 1.138,-0.304 C 5.948,52.15 6.2,51.898 6.455,51.594 L 31.891,12.415 v 38.42 c 0,0.556 0.164,0.999 0.494,1.328 0.327,0.329 0.745,0.494 1.252,0.494 h 3.417 c 0.556,0 0.998,-0.165 1.329,-0.494 0.328,-0.329 0.494,-0.772 0.494,-1.328 V 1.328 c 0,-0.506 -0.166,-0.937 -0.494,-1.29 -0.331,-0.355 -0.748,-0.532 -1.252,-0.532 h -3.418 c -0.861,0 -1.469,0.354 -1.822,1.063 L 6.455,39.369 V 1.253 C 6.455,0.746 6.289,0.329 5.96,0 5.632,-0.33 5.214,-0.494 4.708,-0.494 H 1.215 C 0.708,-0.494 0.304,-0.33 0,0" /></g><g
           transform="translate(544.3524,22.1506)"
           id="g76"><path
             id="path78"
             style="fill:#595b62;fill-opacity:1;fill-rule:nonzero;stroke:none"
             d="m 0,0 c -3.644,3.644 -5.593,8.58 -5.847,14.806 -0.05,1.519 -0.075,3.897 -0.075,7.138 0,3.289 0.025,5.668 0.075,7.137 0.202,6.175 2.138,11.072 5.809,14.692 3.67,3.619 8.795,5.429 15.376,5.429 4.454,0 8.226,-0.811 11.314,-2.429 3.087,-1.621 5.415,-3.558 6.985,-5.809 1.568,-2.253 2.404,-4.341 2.506,-6.264 v -0.152 c 0,-0.406 -0.165,-0.748 -0.494,-1.025 -0.33,-0.279 -0.696,-0.418 -1.101,-0.418 h -4.252 c -0.456,0 -0.797,0.101 -1.025,0.304 -0.228,0.201 -0.444,0.581 -0.645,1.139 -0.811,2.379 -2.304,4.378 -4.48,5.998 -2.178,1.619 -5.114,2.43 -8.808,2.43 -4.252,0 -7.593,-1.165 -10.023,-3.493 C 2.886,37.154 1.594,33.561 1.443,28.701 1.392,27.232 1.367,24.981 1.367,21.944 c 0,-2.988 0.025,-5.24 0.076,-6.758 0.151,-4.911 1.443,-8.53 3.872,-10.858 2.43,-2.329 5.771,-3.493 10.023,-3.493 4.302,0 7.745,1.177 10.327,3.531 2.581,2.353 3.871,5.884 3.871,10.592 v 3.265 H 17.919 c -0.506,0 -0.924,0.177 -1.253,0.531 -0.33,0.354 -0.493,0.785 -0.493,1.291 v 2.278 c 0,0.505 0.163,0.936 0.493,1.291 0.329,0.353 0.747,0.531 1.253,0.531 h 17.009 c 0.556,0 0.999,-0.164 1.329,-0.493 0.329,-0.33 0.493,-0.772 0.493,-1.329 V 15.11 C 36.75,11.009 35.902,7.403 34.207,4.29 32.51,1.177 30.042,-1.228 26.803,-2.923 23.564,-4.62 19.742,-5.467 15.338,-5.467 8.757,-5.467 3.645,-3.645 0,0" /></g></g></g></g></svg>